<svg viewBox="0 0 30 30" xmlns="http://www.w3.org/2000/svg">
    <defs>
        <style>
            .ckcls-1 {
                stroke: #d81b60
            }
        </style>
    </defs>
<path  class="ckcls-1" d="M10.6108 7.4655V5.6688c0-2.3625 1.9218-4.2843 4.284-4.2843 2.3622.0 4.2846 1.9218 4.2846 4.2843V7.4655H10.6108zm0 6.9822V8.8497h8.5686v5.598h1.3845V8.8497h4.6563C25.3915 8.868 25.6036 8.9127 25.7257 9.0942 25.8949 9.3477 25.9123 9.4713 25.9123 9.8871L25.8952 10.4676 25.0546 24.5856C24.9199 26.8458 23.0413 28.6161 20.7775 28.6161H9.0124c-2.2656.0-4.1442-1.7715-4.2774-4.0329L3.9055 10.4769 3.8881 9.9015c0-.4284.0170999999999997-.5541.1863-.807.1353-.2013.3891-.2331.4686-.2433L9.2263 8.8497v5.598h1.3845zM25.4161 7.464 20.5639 7.4655V5.6688C20.5639 2.5431 18.0208.0 14.8948.0 11.7691.0 9.2263 2.5431 9.2263 5.6688V7.4655L4.3837 7.464C3.8812 7.464 3.4246 7.6488 3.0979 7.9842 2.7007 8.3922 2.4997 8.9949 2.5 9.78L2.5489 10.4586l.8043 14.2059C3.529 27.6564 6.0148 30 9.0124 30H20.7775c2.976.0 5.4597-2.325 5.6544-5.2926L27.2512 10.4649 27.3013 9.7512C27.2977 8.0646 26.3251 7.464 25.4161 7.464z" fill="#d81b60"></path>
</svg>