<svg viewBox="0 0 100 100" xmlns="http://www.w3.org/2000/svg">
    <defs>
        <style>
            .ckcls-1 {
                fill: #d81b60;
                stroke-width: 1.5
            }
        </style>
    </defs>
    <path stroke="#d81b60" stroke-width="3" class="ckcls-1"
        d="M69 46.58a24 24 0 10-38 0A41.94 41.94 0 008 84c0 4.42 18.8 8 42 8s42-3.58 42-8a42 42 0 00-23-37.42zM50 12a20 20 0 11-20 20 20 20 0 0120-20zm0 76c-22.06 0-35-3.07-38-5a38 38 0 0121.8-33.34 23.9 23.9 0 0032.39 0A38 38 0 0188 83c-3 1.93-15.94 5-38 5z" />
</svg>