	<svg viewBox="0 0 100 100" id="wunschliste--herz-leer" xmlns="http://www.w3.org/2000/svg">
          <defs>
        <style>
            .ckcls-1 {
                fill: #d81b60;   
            }
        </style>
    </defs>
		<path stroke="#d81b60" stroke-width="3" class="ckcls-1" d="M50 91a1.15 1.15 0 01-.62-.14l-.27-.14C47.42 89.6 16.22 55 15.53 54.21 8.84 46.75 6.32 38.57 8 29.91 9.9 20.57 16.75 13 25.09 11.19a20.57 20.57 0 0118.54 5.08A24.54 24.54 0 0150 25.8a24.68 24.68 0 016.39-9.53 20.57 20.57 0 0118.54-5.08C83.27 13 90.13 20.57 92 29.91c1.72 8.66-.8 16.84-7.49 24.3-.7.77-31.89 35.39-33.6 36.5a1.82 1.82 0 01-.27.15A1.15 1.15 0 0150 91zM29.57 14.54a17.65 17.65 0 00-3.81.42c-7 1.56-12.78 7.9-14.35 15.78-1.47 7.4.67 14.19 6.56 20.75.69.77 27.8 31.2 32 35.23 4.24-4 31.35-34.45 32.05-35.23 5.89-6.57 8-13.35 6.56-20.75-1.53-7.88-7.3-14.22-14.32-15.74a17.38 17.38 0 00-15.68 4.29 21.76 21.76 0 00-6.83 16.1A1.84 1.84 0 0150 37.27a1.83 1.83 0 01-1.73-1.92 21.73 21.73 0 00-6.84-16.1 17.5 17.5 0 00-11.86-4.71z"/>
	</svg>