<?xml version="1.0" encoding="UTF-8" standalone="no"?> <svg width="512" height="512" viewBox="0 0 512 512" fill="none" xmlns="http://www.w3.org/2000/svg">
<path fill-rule="evenodd" clip-rule="evenodd" d="M128 24C70.5624 24 24 70.5624 24 128V384C24 441.438 70.5624 488 128 488H384C441.438 488 488 441.438 488 384V128C488 70.5624 441.438 24 384 24H128ZM40 128C40 79.3989 79.3989 40 128 40H384C432.601 40 472 79.3989 472 128V384C472 432.601 432.601 472 384 472H128C79.3989 472 40 432.601 40 384V128ZM186.217 118.17C180.788 103.691 164.648 96.3545 150.169 101.784C135.689 107.214 128.353 123.354 133.783 137.833L229.783 393.833C233.881 404.762 244.328 412.002 256 412.002C267.672 412.002 278.119 404.762 282.217 393.833L378.217 137.833C383.647 123.354 376.311 107.214 361.832 101.784C347.352 96.3545 331.213 103.691 325.783 118.17L256 304.257L186.217 118.17ZM155.787 116.766C161.992 114.439 168.909 117.583 171.236 123.788L248.509 329.85C249.68 332.973 252.665 335.041 256 335.041C259.335 335.041 262.32 332.973 263.491 329.85L340.764 123.788C343.091 117.583 350.008 114.439 356.214 116.766C362.419 119.093 365.563 126.01 363.236 132.215L267.236 388.215C265.48 392.899 261.002 396.002 256 396.002C250.998 396.002 246.52 392.899 244.764 388.215L148.764 132.215C146.437 126.01 149.581 119.093 155.787 116.766Z" fill="url(#paint0_linear)"/>
<defs>
<linearGradient id="paint0_linear" x1="64" y1="64" x2="448" y2="448" gradientUnits="userSpaceOnUse">
<stop stop-color="#FF003D"/>
<stop offset="1" stop-color="#3D00EB"/>
</linearGradient>
</defs>
</svg>
